<?xml version="1.0" encoding="UTF-8"?>
<svg id="Layer_1" xmlns="http://www.w3.org/2000/svg" version="1.1" viewBox="0 0 240 90">
  <defs>
    <style>
      .st0 { fill: #245ee6; }
      .st1 { fill: #13235e; }
    </style>
  </defs>
  <path class="st0" d="M218.69,36.47l.02,1.72-13.73,3.35v-1.19c0-1.66-.8-3.26-2.19-4.15,0,0-.02-.01-.02-.02l-25.53-16.3c-1.19-.75-2.56-1.4-3.9-1.4s-2.72.64-3.91,1.4l-25.53,16.3c-1.6,1.02-2.95,2.8-2.95,4.7v5.86l-13,3.48v-13.16c0-3.78,1.62-6.73,4.3-8.44l34.92-22.19,3.5-2.22c.82-.52,1.73-.8,2.66-.86.92.05,1.84.34,2.65.86l3.5,2.22,34.92,22.19c2.68,1.71,4.3,4.66,4.3,7.84h-.02Z"/>
  <path class="st0" d="M218.71,43.86v36.72c0,.33-.27.6-.6.6h-12.52c-.33,0-.6-.27-.6-.6v-33.35l13.72-3.38Z"/>
  <path class="st0" d="M197.4,47.35v33.2c0,.35-.27.64-.6.64h-12.52c-.33,0-.6-.27-.6-.6v-29.48l13.72-3.76Z"/>
  <path class="st0" d="M176.09,50.61v29.97c0,.33-.27.6-.6.6h-46.92c-.33,0-.6-.27-.6-.6v-24.63l13-3.26v14.28c0,.67.54,1.21,1.21,1.21h19.35c.68,0,1.22-.56,1.2-1.24l-.35-12.8,13.72-3.53Z"/>
  <path class="st1" d="M21.46,78.28l1.87-4.14c2,1.46,4.99,2.48,7.83,2.48,3.26,0,4.58-1.09,4.58-2.54,0-4.44-13.8-1.39-13.8-10.21,0-4.04,3.26-7.39,10.01-7.39,2.98,0,6.04.71,8.24,2.1l-1.7,4.17c-2.2-1.25-4.48-1.87-6.58-1.87-3.26,0-4.51,1.22-4.51,2.71,0,4.38,13.8,1.36,13.8,10.07,0,3.97-3.29,7.36-10.07,7.36-3.77,0-7.56-1.12-9.67-2.75"/>
  <path class="st1" d="M61.3,75.76h-11.4l-2.17,5.26h-5.82l10.95-24.56h5.61l10.98,24.56h-5.96l-2.17-5.26ZM59.51,71.45l-3.89-9.4-3.89,9.4h7.79Z"/>
  <path class="st1" d="M96.29,83.16c-1.56,1.9-3.8,2.92-6.41,2.92-3.53,0-6-1.29-9.67-5.16-6.51-.81-11.09-5.73-11.09-12.18,0-7.06,5.49-12.28,12.99-12.28s12.99,5.19,12.99,12.28c0,5.56-3.43,9.97-8.48,11.6,1.15,1.22,2.17,1.66,3.36,1.66,1.46,0,2.75-.58,3.87-1.76l2.44,2.92ZM82.11,76.34c4.24,0,7.43-3.09,7.43-7.6s-3.19-7.6-7.43-7.6-7.43,3.09-7.43,7.6,3.19,7.6,7.43,7.6"/>
  <polygon class="st1" points="104.45 60.98 104.45 67.39 114.15 67.39 114.15 71.9 104.45 71.9 104.45 81.02 98.83 81.02 98.83 56.47 117.18 56.47 117.18 60.98 104.45 60.98"/>
  <path class="st1" d="M50.26,25.56c.78,0,1.43-.27,1.94-.81.51-.54.77-1.22.77-2.03s-.26-1.48-.77-2.01c-.51-.53-1.16-.79-1.94-.79s-1.43.26-1.94.79c-.51.53-.77,1.2-.77,2.01s.26,1.49.77,2.03c.51.54,1.16.81,1.94.81"/>
  <path class="st1" d="M72.31,25.53c.71,0,1.3-.25,1.76-.73.47-.49.7-1.1.7-1.84s-.23-1.34-.7-1.82c-.47-.48-1.05-.72-1.76-.72s-1.3.24-1.76.72c-.47.48-.7,1.08-.7,1.82s.23,1.35.7,1.84c.46.49,1.05.73,1.76.73"/>
  <path class="st1" d="M78.71,25.53c.71,0,1.3-.25,1.76-.73.47-.49.7-1.1.7-1.84s-.23-1.34-.7-1.82c-.47-.48-1.05-.72-1.76-.72s-1.3.24-1.76.72c-.47.48-.7,1.08-.7,1.82s.23,1.35.7,1.84c.47.49,1.05.73,1.76.73"/>
  <path class="st1" d="M112.52,30.18v11.51c0,1.46-.28,2.47-.83,3.04-.55.57-1.61.85-3.18.85-1.38,0-2.46-.22-3.24-.65.24-.95.36-2.01.36-3.2v-9.52h-4.66v9.48c0,1.46-.28,2.47-.83,3.04-.55.57-1.61.85-3.18.85-1.38,0-2.46-.22-3.24-.65.24-.95.36-2.01.36-3.2v-7.5h-4.66v7.46c0,1.43-.27,2.44-.81,3.02-.54.58-1.54.87-3,.87h-1.8v-14.34c-2.97-1.49-5.75-2.23-8.35-2.23-2.05,0-3.94.47-5.67,1.4-1.73.93-3.09,2.22-4.09,3.85-1,1.63-1.5,3.46-1.5,5.49,0,2.16.61,4.11,1.82,5.83h-7.42v-14.34c-2.97-1.49-5.75-2.23-8.35-2.23-2.05,0-3.94.47-5.67,1.4-1.73.93-3.09,2.22-4.09,3.85-1,1.63-1.5,3.46-1.5,5.49,0,2.13.61,4.09,1.82,5.88h-10.62c-1.46,0-2.59-.43-3.4-1.28-.81-.85-1.22-1.98-1.22-3.38,0-1.11.25-2.14.75-3.1.5-.96,1.29-1.91,2.37-2.86l-3.69-2.59c-1.32,1.13-2.34,2.4-3.04,3.79-.7,1.39-1.05,2.99-1.05,4.8,0,2.78.78,4.97,2.35,6.56,1.57,1.59,3.75,2.39,6.56,2.39l33.55-.04h25.09c.21,0,.38-.11.51-.33,1.16-.28,2.13-.75,2.88-1.41,1.46,1.16,3.42,1.74,5.87,1.74s4.4-.58,5.67-1.74c1.46,1.16,3.42,1.74,5.88,1.74,2.7,0,4.69-.68,5.98-2.03,1.28-1.35,1.92-3.4,1.92-6.16v-11.55h-4.66ZM53.94,45.58h-5.59c-1.43-.32-2.57-1.02-3.42-2.09-.85-1.07-1.28-2.33-1.28-3.79,0-1.19.28-2.27.85-3.24.57-.97,1.36-1.73,2.37-2.29,1.01-.55,2.15-.83,3.42-.83,1.05,0,2.27.22,3.65.65v11.59ZM79.16,45.58h-5.55c-1.46-.35-2.61-1.05-3.46-2.09-.85-1.04-1.28-2.3-1.28-3.79,0-1.19.28-2.27.85-3.24.57-.97,1.36-1.73,2.37-2.29,1.01-.55,2.15-.83,3.42-.83,1.05,0,2.27.22,3.65.65v11.59Z"/>
</svg>
