<svg xmlns="http://www.w3.org/2000/svg" width="201" height="50" fill="none"><g clip-path="url(#a)"><path fill="#5A539E" d="M191.188 30.142c-.25.464-.75.655-1.199.518-.875-.273-1.749-.6-2.624-.845-.875-.273-1.749-.546-2.599-.792a71 71 0 0 0-5.272-1.282h-.025c-.824-.163-1.399-1.009-1.249-1.936.025-.191.1-.355.175-.519a49 49 0 0 1 2.773-4.692 47 47 0 0 1 3.149-4.283.995.995 0 0 1 1.474-.081c.35.354.425.927.225 1.364-.75 1.609-1.599 3.164-2.449 4.692l-1.249 2.291c-.05.11-.125.191-.175.3 1.174.3 2.324.682 3.448 1.119.899.327 1.774.736 2.649 1.145.874.437 1.724.873 2.548 1.392.5.354.675 1.063.4 1.609"/><path fill="#532E7B" d="M169.205 27.576c-.15.082-.299.137-.474.164h-.025c-1.77.355-3.516.792-5.262 1.284-.872.246-1.745.52-2.618.792-.873.246-1.721.574-2.618.847-.549.164-1.123-.19-1.297-.792-.125-.519.075-1.038.474-1.311.823-.52 1.695-.957 2.543-1.394.873-.41 1.746-.82 2.669-1.147 1.122-.438 2.269-.793 3.441-1.12-.05-.11-.125-.192-.175-.301l-1.247-2.295a103 103 0 0 1-2.443-4.7c-.275-.546-.075-1.257.448-1.53a.96.96 0 0 1 1.247.246 43 43 0 0 1 3.142 4.29c.998 1.502 1.92 3.005 2.768 4.726.449.766.175 1.804-.573 2.241"/><path fill="#284B8E" d="M182.326 47.043c-.532.16-1.119 0-1.399-.39-.644-.87-1.259-1.742-1.903-2.636l-1.847-2.636-1.847-2.637c-.14-.206-.279-.39-.419-.596-.14.206-.28.413-.42.596l-1.847 2.637-1.875 2.636-1.931 2.613c-.335.436-1.063.573-1.595.276-.475-.253-.643-.734-.447-1.124.419-.963.923-1.903 1.427-2.865a94 94 0 0 1 1.567-2.797c.559-.917 1.119-1.857 1.735-2.774.615-.917 1.203-1.811 1.986-2.728l.028-.023c.532-.642 1.595-.803 2.379-.367.196.115.364.252.476.413.727.94 1.343 1.834 1.959 2.75.587.918 1.175 1.835 1.706 2.775a41 41 0 0 1 1.568 2.796c.503.94 1.007 1.88 1.455 2.843.14.505-.14 1.055-.756 1.238"/><path fill="#76348A" d="M172.176 11.832a13.7 13.7 0 0 1-.451-2.446 19 19 0 0 1-.079-2.446c.026-1.639.159-3.278.557-4.917.159-.599.769-.963 1.353-.807.425.104.743.443.823.833.398 1.639.504 3.278.53 4.917.027.807-.026 1.64-.106 2.446s-.212 1.639-.451 2.445a1.15 1.15 0 0 1-1.433.755 1.28 1.28 0 0 1-.743-.78"/><path fill="#116DB4" d="M196.061 37.68c-.294.491-.884.697-1.375.517-1.105-.413-2.186-.852-3.315-1.213a83 83 0 0 0-3.316-1.084 66 66 0 0 0-3.217-.852c.712 1.368 1.473 2.762 2.21 4.155.663 1.265 1.351 2.53 1.989 3.846.614 1.316 1.253 2.633 1.769 4 .245.62-.025 1.343-.639 1.6-.54.233-1.13.026-1.424-.464l-4.495-7.227c-1.498-2.426-2.971-4.955-4.224-7.613a1.867 1.867 0 0 1 .786-2.452c.344-.18.712-.233 1.056-.155 2.432.439 4.838 1.084 7.147 1.987 1.154.439 2.308.93 3.414 1.471 1.105.568 2.185 1.136 3.241 1.807.565.336.737 1.11.393 1.678"/><path fill="#2A2E68" d="M169.819 33.315c-1.279 2.686-2.729 5.216-4.229 7.644l-4.475 7.23a1.147 1.147 0 0 1-1.622.361 1.235 1.235 0 0 1-.443-1.497c.516-1.369 1.156-2.686 1.77-4.003.64-1.291 1.303-2.582 1.992-3.847.737-1.395 1.5-2.79 2.213-4.158a50 50 0 0 0-3.221.878 82 82 0 0 0-3.319 1.085c-1.131.361-2.213.8-3.32 1.213-.614.233-1.278-.103-1.499-.749-.197-.568.024-1.162.491-1.446 1.033-.671 2.139-1.24 3.246-1.807 1.106-.543 2.237-1.06 3.393-1.472 2.311-.904 4.72-1.55 7.154-2.014.935-.181 1.844.49 2.017 1.472.073.387 0 .774-.148 1.11"/><path fill="#116DB4" d="M191.438 40.64c.879.356 1.644.806 2.38 1.303a26 26 0 0 1 2.097 1.562c1.304 1.112 2.55 2.319 3.457 3.739.312.497.113 1.088-.482 1.372-.425.19-.906.166-1.275-.047h-.028c-1.502-.9-2.862-1.917-4.165-2.958a39 39 0 0 1-1.899-1.633c-.595-.568-1.19-1.16-1.671-1.846-.34-.474-.17-1.112.396-1.396.369-.237.822-.237 1.19-.095"/><path fill="#2A2E68" d="M159.965 40.82c-.511.821-1.079 1.529-1.675 2.208s-1.25 1.33-1.903 1.953c-1.306 1.245-2.64 2.462-4.173 3.537a1.193 1.193 0 0 1-1.676-.283 1.22 1.22 0 0 1-.085-1.273c.937-1.698 2.158-3.142 3.464-4.472.653-.68 1.363-1.302 2.073-1.896.738-.566 1.505-1.132 2.385-1.557.596-.31 1.334-.056 1.647.538.198.453.17.906-.057 1.245"/><path fill="#76348A" d="M183 9.604c-1.076 2.364-2.257 4.645-3.49 6.926a244 244 0 0 1-3.831 6.705 1.83 1.83 0 0 1-1.575.907c-.656 0-1.233-.357-1.574-.907-1.286-2.226-2.572-4.452-3.779-6.733a83 83 0 0 1-1.811-3.407c-.577-1.155-1.181-2.309-1.732-3.49-.315-.633-.052-1.43.577-1.732a1.19 1.19 0 0 1 1.522.385c.761 1.017 1.47 2.116 2.205 3.16l2.125 3.216c.84 1.291 1.654 2.61 2.467 3.93a161 161 0 0 1 2.467-3.958c1.391-2.17 2.808-4.287 4.356-6.348.42-.577 1.207-.66 1.758-.22.42.357.551 1.044.315 1.566"/></g><path fill="#2A2D6A" d="M19.366 31.101a5 5 0 0 1-.498 1.66c-.262.442-.55.805-.917 1.065s-.76.467-1.232.57c-.445.13-.943.182-1.441.182-.472 0-.917-.052-1.337-.181a2.7 2.7 0 0 1-1.1-.545c-.315-.26-.524-.597-.681-1.012s-.184-.908-.105-1.48c.052-.336.157-.752.34-1.245.184-.492.42-.96.734-1.4l1.546.57c-.13.234-.21.441-.288.597-.079.182-.157.337-.21.493a3 3 0 0 0-.13.467c-.027.156-.08.311-.08.467-.052.337-.026.597.053.83.079.234.184.415.367.545a1.5 1.5 0 0 0 .576.285c.21.052.446.078.656.078.576 0 1.022-.155 1.362-.44.315-.286.524-.753.603-1.402l1.127-8.718h1.834zm4.954.442c-.027.26-.053.441-.106.545-.026.104-.052.181-.078.181q-.63 0-1.18-.077a3 3 0 0 1-.995-.312 1.38 1.38 0 0 1-.63-.648c-.13-.26-.183-.597-.13-.986l.996-7.732h1.834l-.917 7.135c-.026.207-.026.389.026.545a.57.57 0 0 0 .21.363c.104.078.21.13.34.182.131.026.262.052.42.052.104 0 .183.051.236.181.026.104.026.311-.027.57"/><path fill="#2A2D6A" d="M24.162 32.27c-.236 0-.393-.053-.498-.183s-.13-.285-.105-.518a1.24 1.24 0 0 1 .21-.597c.105-.13.21-.208.367-.208h.34c.184 0 .315-.026.42-.104a.63.63 0 0 0 .262-.259 1.4 1.4 0 0 0 .183-.39c.053-.155.105-.31.157-.518.105-.493.263-.934.472-1.35a4 4 0 0 1 .76-1.037 3.4 3.4 0 0 1 1.048-.675 3.4 3.4 0 0 1 1.258-.233q.747 0 1.337.233c.367.156.681.363.917.649.236.285.393.597.472.96s.105.778.052 1.22a20 20 0 0 1-.079.492 2 2 0 0 1-.13.416 1 1 0 0 0 .445.415c.21.103.446.155.681.155.131 0 .21.052.236.182q.039.195 0 .545a3 3 0 0 0-.052.389c-.026.104-.026.182-.053.233-.026.052-.026.078-.026.104s-.026.026-.026.026c-.131 0-.288 0-.472-.026-.183-.026-.34-.078-.524-.13a1.9 1.9 0 0 1-.498-.285 1.3 1.3 0 0 1-.393-.44c-.34.336-.734.57-1.127.726-.393.155-.838.207-1.284.207a3.5 3.5 0 0 1-1.1-.155c-.315-.104-.63-.312-.97-.597-.262.285-.524.467-.76.545q-.393.155-1.022.155h-.498zm4.717-4.516c-.236 0-.445.078-.655.182a1.9 1.9 0 0 0-.498.52c-.157.207-.262.466-.367.726-.105.285-.183.57-.262.908.236.233.446.415.681.519.21.103.472.155.734.155q.55 0 .944-.389.393-.39.471-1.012c.079-.519 0-.908-.183-1.22q-.276-.389-.865-.389"/><path fill="#2A2D6A" d="M32.731 32.27c-.236 0-.393-.053-.498-.183s-.13-.285-.104-.519a1.24 1.24 0 0 1 .21-.596c.104-.13.209-.208.366-.208h1.232a4.4 4.4 0 0 1-.288-.752c-.053-.26-.08-.52-.027-.779a3.2 3.2 0 0 1 .446-1.323c.236-.39.524-.7.865-.96s.733-.441 1.153-.545a4.3 4.3 0 0 1 1.31-.181c.34 0 .708.026 1.048.078.34.051.63.13.865.207l-.498 1.401c-.13-.026-.314-.078-.576-.104-.263-.052-.524-.052-.787-.052-.183 0-.393.026-.602.078a2.2 2.2 0 0 0-.577.234q-.274.156-.472.467a1.5 1.5 0 0 0-.262.726c-.052.493.053.857.341 1.142.288.26.708.415 1.258.415h1.834l-.183 1.479H32.73zm13.916-.883a1.97 1.97 0 0 1-.917.675c-.367.13-.813.207-1.337.207h-4.298l.184-1.479h3.511c.55 0 .944-.13 1.206-.363.262-.234.419-.649.498-1.245l.864-6.669h1.835l-.917 6.98c-.053.39.052.7.288.934.236.233.603.337 1.048.337.131 0 .236.052.262.182.053.104.053.311.026.545-.052.311-.078.519-.104.596-.027.104-.079.156-.131.156-.184 0-.367-.026-.577-.052a2.1 2.1 0 0 1-.577-.155 3 3 0 0 1-.497-.26c-.131-.078-.262-.233-.367-.39m-4.167-7.395h1.834l-.812 6.15h-1.834zm.236-1.608c-.105-.234-.131-.441-.105-.649a1.53 1.53 0 0 1 .524-.986c.288-.26.681-.39 1.153-.39.105 0 .236 0 .367.027.131.026.288.052.42.104l-.263.726a2 2 0 0 0-.602-.104c-.236 0-.42.052-.577.156q-.197.156-.236.467-.04.311.157.467c.131.104.315.156.577.156h.812l-.104.752h-2.752l.105-.752h.524z"/><path fill="#2A2D6A" d="M48.612 30.764a2.8 2.8 0 0 0 .708-.078c.183-.052.34-.13.445-.233s.184-.234.262-.39c.053-.155.105-.337.131-.544l.918-7.032h1.834l-.97 7.369a4 4 0 0 1-.288 1.064 2.3 2.3 0 0 1-.576.752c-.263.208-.577.338-.97.441q-.59.156-1.415.156c-.236 0-.393-.052-.498-.182s-.131-.285-.105-.519a1.24 1.24 0 0 1 .21-.596.34.34 0 0 1 .314-.208m9.958-.57c-.078.622.105 1.09.55 1.375.446.311 1.154.467 2.15.467.445 0 .865-.026 1.205-.078a6 6 0 0 0 .917-.208c.263-.104.472-.181.603-.311a.67.67 0 0 0 .236-.337c.026-.156-.078-.338-.314-.52q-.354-.27-1.101-.7-.786-.428-1.18-.934c-.261-.337-.34-.752-.288-1.245a2.64 2.64 0 0 1 1.049-1.739 3.2 3.2 0 0 1 1.074-.544c.42-.13.891-.208 1.415-.208.105 0 .236 0 .393.026.131.026.289.026.446.052s.288.052.42.078c.13.026.261.052.366.103l-.472 1.35c-.105-.026-.288-.078-.498-.104-.21-.052-.445-.052-.681-.052-.157 0-.314.026-.498.052-.183.026-.34.078-.524.155-.157.078-.315.156-.42.286a.87.87 0 0 0-.209.441.53.53 0 0 0 .079.39c.078.129.157.233.314.362.131.104.288.234.446.338.157.104.34.207.524.285.236.13.445.26.655.415.21.13.367.286.524.441.131.156.262.338.314.52.08.18.105.414.053.648-.052.39-.21.752-.446 1.064a3.2 3.2 0 0 1-.995.83 4.8 4.8 0 0 1-1.52.519c-.603.13-1.258.181-1.992.181-.76 0-1.441-.051-2.018-.181s-1.074-.312-1.467-.57c-.394-.26-.682-.598-.839-1.013s-.21-.908-.131-1.505q.078-.466.314-1.167c.158-.441.42-.908.734-1.401l1.546.596c-.183.338-.34.649-.471.986a2.4 2.4 0 0 0-.262.857m-.183 5.37c.026-.285.157-.493.367-.674s.446-.26.734-.26.498.078.629.26c.157.181.21.415.183.674a1.12 1.12 0 0 1-.34.7c-.21.183-.446.26-.708.26-.288 0-.498-.077-.655-.26a.74.74 0 0 1-.21-.7m2.359 0c.026-.285.157-.493.367-.674s.445-.26.733-.26c.289 0 .498.078.63.26.157.181.209.415.183.674a1.12 1.12 0 0 1-.341.7c-.21.183-.445.26-.707.26-.289 0-.498-.077-.656-.26-.183-.18-.236-.414-.21-.7m8.779-4.8c.445 0 .76-.077.996-.259.235-.182.367-.493.445-.96l.053-.337c.052-.441-.053-.805-.315-1.038-.262-.234-.681-.363-1.258-.363h-1.284l.183-1.48h1.625c.55 0 1.022.052 1.415.182q.59.195.944.545c.236.234.393.493.472.805a2.6 2.6 0 0 1 .052 1.011l-.105.883c-.105.882-.367 1.53-.786 1.92s-1.048.596-1.94.596h-3.301l.183-1.479h2.62zm6.787 2.361c.262 0 .498 0 .708-.026s.393-.052.55-.13c.157-.051.262-.155.367-.259a1 1 0 0 0 .157-.441H76.81a4.4 4.4 0 0 1-1.205-.156 2.3 2.3 0 0 1-.891-.493 2 2 0 0 1-.525-.882 2.8 2.8 0 0 1-.052-1.245c.052-.415.183-.83.34-1.22.184-.389.42-.726.734-1.038a3.5 3.5 0 0 1 1.101-.726c.42-.182.917-.26 1.442-.26.393 0 .786.052 1.126.182.341.13.63.311.891.545.236.233.42.545.55.908.106.363.132.779.08 1.271l-.21 1.661h.97c.13 0 .209.052.261.182s.053.311.026.57c-.026.312-.078.493-.13.597-.027.104-.08.13-.132.13H79.93a3 3 0 0 1-.498 1.09c-.21.285-.498.544-.813.726a3.4 3.4 0 0 1-1.1.39c-.42.077-.865.13-1.337.13-.262 0-.55-.027-.865-.053-.314-.052-.576-.078-.838-.156l.445-1.4c.21.051.42.077.63.13.261-.027.497-.027.76-.027m-.262-3.84c-.079.493 0 .882.21 1.116.21.233.55.363.995.363h1.049l.21-1.53c.026-.208.026-.39.026-.572-.027-.181-.053-.337-.131-.492a.8.8 0 0 0-.315-.338 1 1 0 0 0-.498-.13c-.157 0-.314.026-.498.078a1.2 1.2 0 0 0-.445.286c-.131.13-.262.285-.367.493-.131.207-.21.467-.236.726"/><path fill="#2A2D6A" d="M81.16 32.27c-.236 0-.393-.053-.498-.182-.105-.13-.13-.286-.105-.52a1.24 1.24 0 0 1 .21-.596c.105-.13.21-.208.367-.208h1.415c.262 0 .498-.026.707-.052a2 2 0 0 0 .498-.13c-.183-.233-.34-.414-.498-.596-.157-.156-.288-.311-.445-.467-.131-.13-.288-.26-.472-.415a4 4 0 0 0-.602-.415c.026-.078.052-.208.104-.364.053-.155.079-.311.131-.493l.158-.467c.052-.13.105-.26.13-.311a4.3 4.3 0 0 1 .603-.311c.236-.104.498-.182.787-.286.288-.078.576-.155.864-.207q.433-.078.865-.078c.42 0 .839.052 1.206.13q.55.116.943.389c.262.181.472.389.603.648.13.26.183.545.13.909a1.6 1.6 0 0 1-.235.674 3.6 3.6 0 0 1-.445.649 4.6 4.6 0 0 1-.63.597 4.7 4.7 0 0 1-.76.492c.105.026.263.052.446.078.184 0 .34.026.472.026h1.363c.13 0 .21.052.262.182.052.104.052.311.026.597-.053.311-.079.519-.105.596-.026.078-.079.13-.131.13h-1.887c-.472 0-.865-.052-1.205-.155s-.603-.208-.787-.364c-.34.156-.733.286-1.153.364a5.3 5.3 0 0 1-1.284.155zm4.01-4.541c-.158 0-.315.026-.498.052-.158.026-.315.051-.472.103a1.4 1.4 0 0 0-.393.13c-.131.052-.21.078-.262.13.34.311.629.597.865.908q.353.467.629.934c.13-.078.288-.182.445-.285.157-.104.288-.234.42-.364q.195-.195.314-.389c.078-.13.13-.285.157-.441 0-.078 0-.156-.026-.26a.5.5 0 0 0-.184-.233 1.2 1.2 0 0 0-.367-.182 1.7 1.7 0 0 0-.628-.103"/><path fill="#2A2D6A" d="M92.953 32.27c-.446 0-.839-.079-1.153-.208-.315-.156-.524-.338-.63-.597-.235.285-.576.467-1.021.623-.446.13-.996.207-1.677.207-.236 0-.393-.052-.498-.181-.105-.13-.131-.286-.105-.52a1.24 1.24 0 0 1 .21-.596c.104-.13.21-.208.366-.208.498 0 .865-.078 1.101-.26.236-.155.393-.492.445-.96l.263-2.075h1.834l-.288 2.232c-.026.13-.026.285 0 .415 0 .13.052.233.105.337a.57.57 0 0 0 .262.233c.13.052.288.078.498.078q.471 0 .707-.233c.157-.156.262-.493.34-.986l.263-2.076h1.834l-.288 2.232c-.026.13-.026.285 0 .415 0 .13.052.233.105.337a.57.57 0 0 0 .262.233c.13.052.288.078.498.078q.471 0 .707-.233c.158-.156.262-.493.341-.986l.42-3.218h1.808l-.42 3.166c-.052.39.053.7.288.934.236.233.577.363 1.049.363.131 0 .236.052.262.182.052.104.052.311.026.545-.052.311-.079.519-.105.596-.026.104-.078.156-.131.156-.183 0-.341-.026-.55-.052a5 5 0 0 1-.577-.13 3 3 0 0 1-.524-.259.95.95 0 0 1-.367-.415 2.3 2.3 0 0 1-.838.649c-.341.13-.708.207-1.1.207-.446 0-.84-.078-1.128-.207-.314-.156-.524-.338-.629-.597-.498.493-1.127.778-1.965.778"/><path fill="#2A2D6A" d="M100.553 30.764c.288 0 .498-.026.707-.078.184-.052.341-.13.446-.233s.183-.234.262-.39c.052-.155.105-.337.131-.544l.917-7.032h1.834l-.969 7.369a4 4 0 0 1-.288 1.064 2.3 2.3 0 0 1-.577.752c-.262.208-.577.338-.97.441q-.589.156-1.415.156c-.236 0-.393-.052-.498-.182s-.131-.285-.105-.519c.027-.259.105-.44.21-.596a.34.34 0 0 1 .315-.208m7.887-8.25-1.257 9.755h-1.835l1.258-9.755zm3.879 12.064c-.262 0-.524-.026-.733-.052a2.2 2.2 0 0 1-.524-.13l.419-1.426c.105.026.209.026.314.052s.184.026.289.026c.34 0 .602-.104.76-.286.183-.181.288-.519.34-.934l.708-5.5h1.834l-.576 4.436h1.127c.131 0 .209.052.262.182.052.13.052.311.026.57a2.8 2.8 0 0 1-.105.572c-.026.103-.079.155-.131.155h-1.363a4 4 0 0 1-.367 1.168c-.183.311-.367.545-.629.7-.235.182-.498.286-.786.364a3.4 3.4 0 0 1-.865.103m1.861-10.482c.026-.285.157-.493.367-.674s.445-.26.734-.26c.288 0 .498.078.629.26.157.181.209.389.183.674a1.1 1.1 0 0 1-.341.7c-.209.182-.445.26-.707.26-.288 0-.498-.078-.655-.26-.184-.207-.262-.44-.21-.7"/><path fill="#2A2D6A" d="M116.303 32.27c-.236 0-.393-.053-.498-.182-.105-.13-.131-.286-.105-.52.026-.233.105-.44.183-.57.105-.13.21-.208.367-.208h3.931c.472 0 .813-.104 1.022-.285.21-.208.367-.519.419-.934l.053-.337c.131-.909-.367-1.376-1.468-1.376h-2.909l.184-1.479 4.14-3.814 1.101 1.142-2.935 2.672h1.074c.525 0 .97.078 1.337.182.367.13.655.311.865.519.209.234.367.493.445.804s.079.649.053 1.012l-.105.882c-.105.883-.393 1.531-.813 1.92-.419.39-1.048.571-1.913.571zm8.202 2.309c-.262 0-.524-.026-.734-.052a2.2 2.2 0 0 1-.524-.13l.419-1.427c.105.026.21.026.315.052s.183.026.288.026c.341 0 .603-.104.76-.286.184-.181.288-.519.341-.934l.707-5.5h1.835l-.577 4.436h1.127c.131 0 .21.052.262.182s.053.311.026.57a3 3 0 0 1-.104.572c-.027.103-.079.155-.132.155h-1.362c-.079.467-.21.857-.367 1.168-.184.311-.367.545-.629.7a2.2 2.2 0 0 1-.786.364 3.3 3.3 0 0 1-.865.103"/><path fill="#2A2D6A" d="M128.515 32.27c-.236 0-.394-.053-.498-.183-.105-.13-.131-.285-.105-.518.026-.26.105-.441.209-.597.105-.13.21-.208.367-.208h.341c.183 0 .314-.026.419-.104a.63.63 0 0 0 .262-.259c.079-.104.131-.233.184-.39.052-.155.105-.31.157-.518.105-.493.262-.934.472-1.35.209-.414.471-.752.76-1.037a3.4 3.4 0 0 1 1.048-.675 3.4 3.4 0 0 1 1.258-.233q.747 0 1.336.233c.367.156.682.363.918.649.235.285.393.597.471.96.079.363.105.778.053 1.22-.027.181-.053.337-.079.492-.026.156-.079.286-.131.416a1 1 0 0 0 .446.415c.209.103.445.155.681.155.131 0 .21.052.236.182q.039.195 0 .545c-.026.155-.053.311-.053.389-.026.104-.026.182-.052.233s-.026.078-.026.104-.026.026-.026.026c-.131 0-.289 0-.472-.026-.184-.026-.341-.078-.524-.13a1.9 1.9 0 0 1-.498-.285 1.3 1.3 0 0 1-.393-.44c-.341.336-.734.57-1.127.726-.393.155-.839.207-1.284.207a3.5 3.5 0 0 1-1.101-.155c-.314-.104-.629-.312-.97-.597-.262.285-.524.467-.76.545q-.393.155-1.022.155h-.497zm4.717-4.516c-.236 0-.446.078-.656.182a1.9 1.9 0 0 0-.497.52c-.158.207-.263.466-.367.726-.105.285-.184.57-.262.908.235.233.445.415.681.519.21.103.472.155.734.155q.55 0 .943-.389.393-.39.472-1.012c.078-.519 0-.908-.184-1.22q-.274-.389-.864-.389"/><path fill="#2A2D6A" d="M137.032 30.764c.288 0 .498-.026.707-.078.184-.052.341-.13.446-.233s.183-.234.262-.39c.052-.155.105-.337.131-.544l.917-7.032h1.834l-.969 7.369a4 4 0 0 1-.288 1.064 2.3 2.3 0 0 1-.577.752c-.262.208-.577.338-.97.441q-.589.156-1.415.156c-.236 0-.393-.052-.498-.182s-.131-.285-.104-.519c.026-.259.104-.44.209-.596a.32.32 0 0 1 .315-.208m7.887-8.25-1.284 9.755h-1.834l1.284-9.755zM6.525 40.416a4.3 4.3 0 0 0-.996-.26 7 7 0 0 0-.995-.077c-.21 0-.393.026-.577.052a1.8 1.8 0 0 0-.524.156 1.2 1.2 0 0 0-.393.311c-.105.13-.157.285-.184.493a.8.8 0 0 0 .053.441c.052.13.157.26.288.363.131.104.315.234.524.338.21.103.472.233.76.363.367.156.708.337.996.493.288.181.55.363.76.597s.367.493.446.778c.078.285.104.649.052 1.064-.052.467-.21.882-.446 1.245a2.9 2.9 0 0 1-.89.882c-.367.234-.76.39-1.206.52a6 6 0 0 1-1.363.155c-.445 0-.917-.026-1.389-.104A9 9 0 0 1 0 47.863l.55-1.583q.63.273 1.258.39c.42.077.813.13 1.153.13.524 0 .944-.079 1.258-.26a1.14 1.14 0 0 0 .524-.83.9.9 0 0 0-.052-.468 1.2 1.2 0 0 0-.288-.389c-.131-.13-.315-.233-.55-.363-.21-.104-.499-.234-.787-.363a7 7 0 0 1-.97-.493 4.3 4.3 0 0 1-.733-.597 2.5 2.5 0 0 1-.446-.752 2.3 2.3 0 0 1-.052-.96c.052-.494.21-.909.445-1.246a3.5 3.5 0 0 1 .891-.856c.367-.234.734-.39 1.153-.493a5 5 0 0 1 1.206-.156q.708 0 1.336.078c.42.052.787.156 1.127.26zm6.028 3.165c.052-.363-.053-.648-.289-.856s-.602-.311-1.127-.311q-.393 0-.864.078a6 6 0 0 0-1.022.26l-.184-1.35a8 8 0 0 1 1.153-.285 7 7 0 0 1 1.206-.13c1.153 0 1.991.233 2.463.7s.655 1.116.524 1.972l-.367 2.88c-.026.26-.052.545-.078.83a3.6 3.6 0 0 0 0 .753H12.29c-.026-.104-.026-.26-.026-.441v-.441h-.026c-.21.311-.524.545-.89.752a3 3 0 0 1-1.285.286 3.5 3.5 0 0 1-.917-.104 2.2 2.2 0 0 1-.786-.39 1.43 1.43 0 0 1-.498-.674q-.157-.39-.079-1.012c.079-.493.236-.908.498-1.245a2.53 2.53 0 0 1 1.048-.727c.42-.155.917-.285 1.494-.337a18 18 0 0 1 1.703-.078zm-.42 1.35c-.314 0-.629.026-.917.052s-.55.077-.786.181a1.2 1.2 0 0 0-.55.363 1.05 1.05 0 0 0-.263.571c-.026.312.027.545.184.7.157.156.42.26.734.26.262 0 .498-.052.707-.13a1.5 1.5 0 0 0 .55-.363 1.6 1.6 0 0 0 .341-.519c.079-.181.131-.389.158-.596l.052-.493h-.21zm8.307 3.217.132-.934h-.026c-.236.363-.55.623-.97.804a3.3 3.3 0 0 1-1.31.286c-.394 0-.76-.052-1.075-.182a2 2 0 0 1-.76-.519 2 2 0 0 1-.42-.804 2.7 2.7 0 0 1-.052-1.038l.603-4.618h1.913l-.498 3.917c-.026.286-.052.545-.026.753 0 .233.052.415.131.57.079.156.21.286.367.364s.367.13.629.13c.183 0 .367-.026.55-.104s.367-.182.524-.312a1.7 1.7 0 0 0 .42-.596c.13-.26.21-.571.262-.934l.498-3.788h1.913l-.918 7.005zm9.854-9.729h1.913l-1.258 9.755h-1.86l.105-.882h-.026c-.315.363-.682.649-1.101.804-.42.156-.812.234-1.206.234-.471 0-.89-.104-1.258-.286a2.2 2.2 0 0 1-.838-.778c-.21-.337-.34-.726-.42-1.167a4.3 4.3 0 0 1 0-1.427c.08-.52.184-.986.394-1.428.183-.44.445-.83.733-1.167a3.15 3.15 0 0 1 2.385-1.064c.42 0 .786.078 1.127.208.34.155.629.389.839.726h.026zm-4.088 6.227a3.4 3.4 0 0 0-.026.882c.026.285.105.519.21.726a1.1 1.1 0 0 0 .445.467c.184.104.42.182.708.182s.524-.052.76-.182c.236-.104.445-.26.602-.467.184-.207.315-.44.446-.726.105-.286.21-.571.236-.908.052-.312.026-.623 0-.883-.053-.285-.131-.519-.262-.7a1.2 1.2 0 0 0-.498-.467 1.6 1.6 0 0 0-.708-.156c-.262 0-.524.052-.733.182-.236.104-.42.285-.577.467a3 3 0 0 0-.393.7 9 9 0 0 0-.21.883m9.408-3.503-.917 7.005h-1.913l.917-7.005zm.34-2.699-.209 1.635h-1.913l.21-1.635zm5.452.234h3.983c.42 0 .812.052 1.153.13.34.077.629.233.865.415s.419.44.524.752q.157.467.078 1.09-.117.895-.629 1.4c-.34.338-.733.598-1.179.727v.026c.262.078.472.156.655.286.184.104.367.26.498.44.131.182.236.39.315.65.052.259.078.57.026.907q-.078.546-.315 1.012a2.6 2.6 0 0 1-.68.83 3.1 3.1 0 0 1-1.05.571c-.418.13-.864.208-1.414.208h-4.062zm.917 7.913h1.572c.262 0 .472-.026.681-.052s.393-.103.55-.181q.237-.156.394-.39c.105-.155.157-.363.21-.622q.04-.39-.08-.623a1 1 0 0 0-.34-.389c-.157-.104-.34-.156-.576-.208s-.498-.051-.76-.051h-1.337zm.524-4.047h1.389c.524 0 .943-.104 1.258-.286.288-.181.471-.493.55-.908.026-.233 0-.415-.052-.57-.079-.156-.158-.26-.289-.338a1.3 1.3 0 0 0-.471-.156 4 4 0 0 0-.577-.052h-1.494zm10.77 5.604.131-.934h-.026c-.236.363-.55.623-.97.804a3.3 3.3 0 0 1-1.31.286c-.393 0-.76-.052-1.074-.182a2 2 0 0 1-.76-.519 2 2 0 0 1-.42-.804 2.7 2.7 0 0 1-.052-1.038l.603-4.618h1.913l-.498 3.917c-.026.286-.052.545-.026.753 0 .233.052.415.13.57a.83.83 0 0 0 .368.364c.157.078.367.13.629.13.183 0 .367-.026.55-.104s.367-.182.524-.312c.157-.155.315-.337.42-.596.13-.26.21-.571.261-.934l.498-3.788h1.913l-.917 7.005zm8.78-5.371a5.3 5.3 0 0 0-.996-.285 5.4 5.4 0 0 0-.891-.078c-.288 0-.498.052-.681.13s-.289.233-.315.44c-.026.208.053.364.21.494s.498.26.996.415q.55.155.943.389c.262.13.498.285.681.467q.276.273.393.623c.08.233.08.493.053.804q-.08.585-.393 1.012c-.21.285-.472.493-.76.649a3.8 3.8 0 0 1-.996.363 5 5 0 0 1-1.074.104c-.446 0-.891-.052-1.363-.13a5.3 5.3 0 0 1-1.232-.363l.55-1.427c.367.155.76.285 1.154.389.393.078.76.13 1.048.13.367 0 .655-.052.865-.13.21-.104.314-.26.367-.493.026-.208-.053-.363-.263-.519q-.315-.194-1.1-.467c-.734-.26-1.232-.545-1.546-.882-.289-.337-.42-.753-.341-1.272.052-.389.183-.7.367-.986a2.2 2.2 0 0 1 .707-.674q.433-.272.944-.39c.34-.077.681-.13 1.022-.13.367 0 .76.027 1.153.105s.76.155 1.1.285zm4.35-1.634-.917 7.005h-1.887l.917-7.005zm.367-2.699-.21 1.635h-1.913l.21-1.635zm3.381 2.699-.132.934h.027c.236-.364.55-.623.97-.805a3.3 3.3 0 0 1 1.31-.285c.393 0 .76.052 1.074.181.314.13.55.286.76.52.21.233.34.492.42.804.078.311.104.648.052 1.038l-.603 4.618H72.46l.498-3.918c.026-.285.052-.545.052-.778 0-.234-.052-.415-.13-.571-.08-.156-.21-.26-.368-.363a1.4 1.4 0 0 0-.629-.13 1.4 1.4 0 0 0-.55.104 1.6 1.6 0 0 0-.524.337c-.183.156-.314.363-.445.623-.132.26-.21.545-.263.908l-.498 3.788H67.69l.918-7.006zm7.625 4.073q0 .467.158.779c.105.207.236.389.445.519.184.13.42.233.682.311s.55.104.838.104c.262 0 .55-.026.865-.052a7 7 0 0 0 .865-.182l.026 1.375c-.314.078-.655.156-1.022.208-.34.052-.734.078-1.153.078-.629 0-1.18-.078-1.651-.26-.472-.181-.865-.415-1.153-.752a2.9 2.9 0 0 1-.63-1.142q-.195-.66-.078-1.479c.079-.519.21-1.012.446-1.479.236-.44.498-.83.865-1.167.34-.337.76-.571 1.205-.753.472-.181.97-.26 1.52-.26q.786 0 1.337.234c.366.156.68.39.917.701q.354.467.471 1.09c.08.415.08.908.027 1.427l-.105.752H78.12zm2.018-2.958c-.445 0-.838.156-1.179.441-.34.312-.55.701-.681 1.194h3.066c.079-.493 0-.882-.236-1.194-.21-.285-.524-.44-.97-.44m8.989.518a5.3 5.3 0 0 0-.996-.285 5.4 5.4 0 0 0-.891-.078c-.288 0-.498.052-.681.13s-.289.233-.315.44c-.026.208.052.364.21.494.157.13.498.26.996.415q.55.155.943.389c.262.13.498.285.681.467q.276.273.394.623c.078.233.078.493.052.804q-.078.585-.393 1.012c-.21.285-.472.493-.76.649a3.8 3.8 0 0 1-.996.363 5 5 0 0 1-1.075.104c-.445 0-.89-.052-1.362-.13a5.3 5.3 0 0 1-1.232-.363l.55-1.427c.367.155.76.285 1.154.389.393.078.76.13 1.048.13.367 0 .655-.052.865-.13.21-.104.314-.26.367-.493.026-.208-.053-.363-.263-.519q-.314-.194-1.1-.467c-.734-.26-1.232-.545-1.546-.882-.289-.337-.42-.753-.341-1.272.052-.389.183-.7.367-.986a2.2 2.2 0 0 1 .707-.674q.433-.272.944-.39c.34-.077.681-.13 1.022-.13.367 0 .76.027 1.153.105s.76.155 1.1.285zm6.447 0a5.3 5.3 0 0 0-.996-.285 5.4 5.4 0 0 0-.891-.078c-.288 0-.498.052-.682.13a.52.52 0 0 0-.314.44c-.026.208.052.364.21.494.157.13.498.26.995.415q.55.155.944.389c.262.13.498.285.681.467q.276.273.393.623c.079.233.079.493.053.804q-.08.585-.393 1.012a2.25 2.25 0 0 1-.76.649 3.8 3.8 0 0 1-.996.363 5 5 0 0 1-1.075.104c-.445 0-.89-.052-1.362-.13a5 5 0 0 1-1.232-.363l.55-1.427c.367.155.76.285 1.153.389s.76.13 1.049.13c.366 0 .655-.052.864-.13.21-.104.341-.26.367-.493.026-.208-.052-.363-.262-.519q-.314-.194-1.1-.467c-.734-.26-1.232-.545-1.547-.882-.288-.337-.419-.753-.34-1.272.052-.389.183-.7.367-.986a2.2 2.2 0 0 1 .707-.674q.432-.272.944-.39c.34-.077.68-.13 1.022-.13.367 0 .76.027 1.179.105.393.078.76.155 1.1.285zm12.526-2.361a3.7 3.7 0 0 0-.812-.233c-.289-.052-.577-.104-.865-.104-.498 0-.97.078-1.389.26-.419.18-.76.414-1.048.726a4.2 4.2 0 0 0-.708 1.064 4.6 4.6 0 0 0-.367 1.297c-.052.44-.052.856.027 1.245.078.39.209.753.445 1.064.21.311.498.545.865.727s.786.259 1.284.259c.367 0 .681-.026.996-.104.314-.052.602-.155.865-.26l.131 1.506c-.367.13-.734.233-1.153.311s-.839.104-1.258.104c-.734 0-1.363-.13-1.913-.364a3.6 3.6 0 0 1-1.389-1.011 3.5 3.5 0 0 1-.76-1.531c-.158-.597-.184-1.246-.079-1.972.105-.727.288-1.375.577-1.972a5.3 5.3 0 0 1 1.153-1.557 4.7 4.7 0 0 1 1.677-1.012 6 6 0 0 1 2.096-.363c.42 0 .839.026 1.206.104.367.052.707.156.996.285zm2.49 4.8q0 .467.157.779c.105.207.236.389.445.519.184.13.42.233.682.311s.55.104.838.104c.262 0 .551-.026.865-.052a7 7 0 0 0 .865-.182l.026 1.375c-.314.078-.655.156-1.022.208-.34.052-.734.078-1.153.078-.629 0-1.179-.078-1.651-.26-.472-.181-.865-.415-1.153-.752a2.9 2.9 0 0 1-.629-1.142q-.196-.66-.078-1.479c.078-.519.209-1.012.445-1.479.236-.44.498-.83.865-1.167.341-.337.76-.571 1.205-.753a4.2 4.2 0 0 1 1.52-.26q.786 0 1.337.234c.367.156.681.39.917.701q.354.467.472 1.09c.078.415.078.908.026 1.427l-.105.752h-4.874zm2.018-2.958c-.446 0-.839.156-1.18.441-.34.312-.55.701-.681 1.194h3.066c.079-.493 0-.882-.236-1.194-.183-.285-.524-.44-.969-.44m6.735-1.116-.131.934h.026c.236-.364.55-.623.969-.805.42-.181.865-.285 1.311-.285.393 0 .76.052 1.074.181.315.13.551.286.76.52.21.233.341.492.419.804.079.311.105.648.053 1.038l-.603 4.618h-1.913l.498-3.918c.026-.285.052-.545.052-.778 0-.234-.052-.415-.131-.571-.078-.156-.209-.26-.367-.363a1.4 1.4 0 0 0-.628-.13c-.184 0-.367.026-.551.104a1.6 1.6 0 0 0-.524.337c-.183.156-.314.363-.445.623s-.21.545-.262.908l-.498 3.788h-1.913l.917-7.006zm5.791 0h1.075l.235-1.869h1.913l-.235 1.868h1.467l-.183 1.428h-1.468l-.419 3.139c-.026.234-.053.441-.053.57 0 .156.027.26.079.338s.131.13.21.156a1.6 1.6 0 0 0 .393.052c.105 0 .209 0 .314-.026.105 0 .21-.026.315-.052l-.184 1.401c-.183.026-.393.026-.602.052-.21.026-.42.026-.656.026-.445 0-.812-.052-1.074-.13a1.04 1.04 0 0 1-.577-.39c-.131-.155-.209-.388-.235-.622-.027-.26 0-.545.026-.882l.472-3.632h-1.075zm6.63 4.073q0 .467.157.779c.105.207.236.389.446.519.183.13.419.233.681.311s.55.104.839.104c.262 0 .55-.026.865-.052.314-.052.602-.104.864-.182l.027 1.375c-.315.078-.656.156-1.022.208a8 8 0 0 1-1.154.078c-.628 0-1.179-.078-1.651-.26-.471-.181-.864-.415-1.153-.752a2.9 2.9 0 0 1-.629-1.142q-.197-.66-.078-1.479c.078-.519.209-1.012.445-1.479.236-.44.498-.83.865-1.167.341-.337.76-.571 1.206-.753.471-.181.969-.26 1.52-.26q.786 0 1.336.234c.367.156.681.39.917.701q.354.467.472 1.09c.079.415.079.908.026 1.427l-.105.752h-4.874zm2.018-2.958c-.446 0-.839.156-1.179.441-.341.312-.551.701-.682 1.194h3.066c.079-.493 0-.882-.235-1.194-.21-.285-.551-.44-.97-.44m8.832.207c-.079-.026-.184-.026-.262-.052-.079 0-.184-.026-.289-.026a2.1 2.1 0 0 0-.681.13c-.21.078-.419.207-.603.389-.183.182-.341.441-.472.726-.131.312-.209.675-.288 1.116l-.445 3.373h-1.913l.917-7.005h1.86l-.131.908h.027c.445-.727 1.1-1.064 1.991-1.064h.262c.079 0 .184 0 .262.026z"/><defs><clipPath id="a"><path fill="#fff" d="M148.832 1.18H201v47.565h-52.168z"/></clipPath></defs></svg>
